# xmcd
#
# Track frame offsets:
#	150
#	15845
#	46483
#	62884
#	98542
#	114570
#	146355
#	171712
#
# Disc length: 2750 seconds
#
# Revision: 1
# Processed by: cddbd v1.5.2PL0 Copyright (c) Steve Scherf et al.
# Submitted via: audiograbber 1.83.01
#
DISCID=650abc08
DTITLE=Hype Active - Playing (Make My Body Boogie) [CDM)
DYEAR=2006
DGENRE=Dance
TTITLE0=Playing (Make My Body Boogie) (Dan Winter Original Radio)
TTITLE1=Playing (Make My Body Boogie) (Dan Winter Original Extended)
TTITLE2=Playing (Make My Body Boogie) (Dan Winter Remix Radio)
TTITLE3=Playing (Make My Body Boogie) (Dan Winter Remix Extended)
TTITLE4=Playing (Make My Body Boogie) (Dave Bacon Remix Radio)
TTITLE5=Playing (Make My Body Boogie) (Dave Bacon Remix Extended)
TTITLE6=Playing (Make My Body Boogie) (Dave Bacon Dub Mix)
TTITLE7=Playing (Make My Body Boogie) (Beam Remix)
EXTD=TR.
EXTT0=
EXTT1=
EXTT2=
EXTT3=
EXTT4=
EXTT5=
EXTT6=
EXTT7=
PLAYORDER=
